<svg id="Layer_1" data-name="Layer 1" xmlns="http://www.w3.org/2000/svg" viewBox="0 0 25 25"><defs><style>.cls-1{fill:#fff;fill-rule:evenodd;}</style></defs><title>Icon-Contact</title><path id="Path_515" data-name="Path 515" class="cls-1" d="M5.87,2,9.56,5.65a1.19,1.19,0,0,1,.06,1.67l-.06.07-2,2a23.25,23.25,0,0,0,3.54,4.77,20.78,20.78,0,0,0,4.55,3.18l2-2a1.32,1.32,0,0,1,1.73,0l3.69,3.76a1.24,1.24,0,0,1,.14,1.74,1.85,1.85,0,0,1-.14.14c-.44.5-.87.94-1.3,1.37C15.92,28.26-3.3,9.13,2.62,3.27L3.92,2a1.31,1.31,0,0,1,1.85-.1A.94.94,0,0,1,5.87,2Z"/></svg>