<svg id="Layer_1" data-name="Layer 1" xmlns="http://www.w3.org/2000/svg" viewBox="0 0 42 42"><defs><style>.cls-1{fill:#47c0b0;}</style></defs><title>Icon</title><path id="Path_533" data-name="Path 533" class="cls-1" d="M34.12,31.93c0,3.63-5.88,6.57-13.12,6.57S7.88,35.56,7.88,31.93V28.24c0,3.63,5.87,5.88,13.12,5.88s13.12-2.25,13.12-5.88Zm0-6.56c0,3.63-5.88,6.56-13.12,6.56S7.88,29,7.88,25.37V21.68c0,3.62,5.87,5.88,13.12,5.88s13.12-2.26,13.12-5.88Zm0-6.56c0,3.62-5.88,6.56-13.12,6.56S7.88,22.43,7.88,18.81V15.12C7.88,18.75,13.75,21,21,21s13.12-2.25,13.12-5.88Zm0-6.56c0,3.62-5.88,6.56-13.12,6.56S7.88,15.87,7.88,12.25V10.06C7.88,6.44,13.75,3.5,21,3.5s13.12,2.94,13.12,6.56Z"/></svg>