<svg id="Layer_1" data-name="Layer 1" xmlns="http://www.w3.org/2000/svg" viewBox="0 0 125 125"><defs><style>.cls-1{fill:#47c0b0;}</style></defs><title>Icon</title><path id="Path_524" data-name="Path 524" class="cls-1" d="M94.84,10.76A17.25,17.25,0,1,1,82.47,40L54.89,55.9A21.19,21.19,0,0,1,56,62.5a21.43,21.43,0,0,1-1.14,6.6L82.49,85a17.12,17.12,0,0,1,12.34-5.29A17.25,17.25,0,1,1,77.59,97a16.85,16.85,0,0,1,.67-4.47L50.64,76.6a21.57,21.57,0,1,1,0-28.2L78.24,32.46A17.24,17.24,0,0,1,77.59,28,17.3,17.3,0,0,1,94.84,10.76Z"/></svg>