<svg id="Layer_1" data-name="Layer 1" xmlns="http://www.w3.org/2000/svg" viewBox="0 0 42 42"><defs><style>.cls-1{fill:#47c0b0;}</style></defs><title>Icon</title><g id="Group_1125" data-name="Group 1125"><path id="Path_537" data-name="Path 537" class="cls-1" d="M34.77,13.21H24.51l2.14-4.93a.75.75,0,0,0-.38-1l-.05,0a.75.75,0,0,0-1,.38l0,.06-1.07,2.46H7.23a3.6,3.6,0,0,0-3.62,3.56V23.93a3.59,3.59,0,0,0,3.56,3.62H8v3.63a.78.78,0,0,0,.43.58c0,.14.15.14.29.14a.55.55,0,0,0,.44-.14l5.65-4.21h1.79l-2.08,4.79a.75.75,0,0,0,.37,1l.06,0h.29a.81.81,0,0,0,.73-.43L17,30.44H27.23l5.65,4.2a.52.52,0,0,0,.44.15c.14,0,.14,0,.29-.15s.43-.28.43-.57V30.59h.73a3.57,3.57,0,0,0,3.62-3.54V16.83a3.59,3.59,0,0,0-3.55-3.62ZM17.67,23.35a.83.83,0,0,1,.29,1v0a2.34,2.34,0,0,1-.72.28c-.14,0-.29,0-.29-.14a10.88,10.88,0,0,1-3.31-2.6,10.16,10.16,0,0,1-1.76,1.44c0,.14-.14.14-.29.14A.73.73,0,0,1,11,23.2c-.29-.29-.14-.72.15-1a9.54,9.54,0,0,0,1.62-1.42A10.62,10.62,0,0,1,11.07,16h-.94a.69.69,0,0,1-.72-.64v-.08a.68.68,0,0,1,.64-.73h3v-.73a.69.69,0,0,1,.65-.72h.08a.69.69,0,0,1,.72.64v.81h2.9a.68.68,0,0,1,.72.64v.09a.68.68,0,0,1-.64.72H16.39a10.16,10.16,0,0,1-1.86,4.79A9.74,9.74,0,0,0,17.67,23.35Zm13.47,2a.67.67,0,0,1-.64.72h-.08a.67.67,0,0,1-.72-.64.11.11,0,0,1,0-.08V23.2H25.35v2.18a.69.69,0,0,1-.64.72h-.09a.67.67,0,0,1-.72-.64V19.58a2.22,2.22,0,0,1,2.17-2.17H29a2.22,2.22,0,0,1,2.17,2.17Z"/><path id="Path_538" data-name="Path 538" class="cls-1" d="M29,18.84H26.05a.7.7,0,0,0-.73.66v2.27h4.39V19.58a.71.71,0,0,0-.65-.74Z"/><path id="Path_539" data-name="Path 539" class="cls-1" d="M13.69,19.54A8.73,8.73,0,0,0,15,16H12.51A9.39,9.39,0,0,0,13.69,19.54Z"/></g></svg>