<svg id="Layer_1" data-name="Layer 1" xmlns="http://www.w3.org/2000/svg" viewBox="0 0 20 20"><defs><style>.cls-1{fill:#43215c;}</style></defs><title>Mini</title><g id="Group_1119" data-name="Group 1119"><path id="Path_528" data-name="Path 528" class="cls-1" d="M11.94,2A7,7,0,0,1,18.9,9V9a6.92,6.92,0,0,1-3.17,5.81l-3.17-3.71v4.8c-.21,0-.41.05-.62.05a7,7,0,0,1-4.39-1.56A5.69,5.69,0,0,0,7.48,3.65,6.9,6.9,0,0,1,11.94,2ZM5.57,4.55A4.44,4.44,0,0,1,10,9V9a4.44,4.44,0,0,1-4.43,4.45h0A4.45,4.45,0,0,1,1.1,9V9A4.45,4.45,0,0,1,5.54,4.55ZM3.05,8.35A.66.66,0,0,0,2.41,9a.66.66,0,0,0,.64.63A.63.63,0,1,0,3,8.35Zm2.53,0A.65.65,0,0,0,5,9a.65.65,0,0,0,.63.63.63.63,0,1,0,0-1.26Zm2.55,0A.65.65,0,0,0,7.5,9a.65.65,0,0,0,.63.63.63.63,0,1,0,0-1.26Zm3.8,0a.66.66,0,0,0-.64.63.66.66,0,0,0,.64.63.63.63,0,1,0,0-1.26Zm2.53,0a.65.65,0,0,0-.63.63.65.65,0,0,0,.63.63A.66.66,0,0,0,15.1,9a.65.65,0,0,0-.64-.63Zm2.55,0a.65.65,0,0,0-.63.63.65.65,0,0,0,.63.63A.66.66,0,0,0,17.65,9,.65.65,0,0,0,17,8.35Zm-3.18,6.16,2.22,2.59-1.29.07-.93.82Z"/></g></svg>