<svg id="Layer_1" data-name="Layer 1" xmlns="http://www.w3.org/2000/svg" viewBox="0 0 20 20"><defs><style>.cls-1{fill:#43215c;}</style></defs><title>Mini</title><g id="Group_1122" data-name="Group 1122"><path id="Path_533" data-name="Path 533" class="cls-1" d="M16.15,15.12c0,1.7-2.76,3.08-6.15,3.08s-6.15-1.38-6.15-3.08V13.39c0,1.7,2.75,2.76,6.15,2.76s6.15-1.06,6.15-2.76Zm0-3.07c0,1.7-2.76,3.07-6.15,3.07s-6.15-1.37-6.15-3.07V10.32c0,1.7,2.75,2.76,6.15,2.76s6.15-1.06,6.15-2.76Zm0-3.08c0,1.7-2.76,3.08-6.15,3.08S3.85,10.67,3.85,9V7.24C3.85,8.94,6.6,10,10,10S16.15,9,16.15,7.24Zm0-3.07C16.15,7.6,13.39,9,10,9S3.85,7.6,3.85,5.9v-1C3.85,3.18,6.6,1.8,10,1.8s6.15,1.38,6.15,3.08Z"/></g></svg>