<svg id="Layer_1" data-name="Layer 1" xmlns="http://www.w3.org/2000/svg" viewBox="0 0 125 125"><defs><style>.cls-1{fill:#47c0b0;}</style></defs><title>Icon</title><g id="Group_1125" data-name="Group 1125"><path id="Path_537" data-name="Path 537" class="cls-1" d="M108.39,36.52H74.19L81.34,20.1a2.52,2.52,0,0,0-1.27-3.32l-.18-.07A2.5,2.5,0,0,0,76.59,18a1,1,0,0,0-.08.21l-3.58,8.2H16.61A12,12,0,0,0,4.54,38.23a.81.81,0,0,0,0,.22V72.26A12,12,0,0,0,16.39,84.35H19V96.42a2.64,2.64,0,0,0,1.45,1.94c0,.49.48.49,1,.49a1.78,1.78,0,0,0,1.44-.49l18.84-14h6l-7,15.94a2.51,2.51,0,0,0,1.25,3.3l.2.08h1a2.68,2.68,0,0,0,2.41-1.45L49.18,94l1.25,0H83.27l18.84,14a1.81,1.81,0,0,0,1.45.49c.48,0,.48,0,1-.49,1,0,1.45-1,1.45-1.92V94.48h2.42a11.94,11.94,0,0,0,12.07-11.83,1,1,0,0,0,0-.24V48.6a12,12,0,0,0-11.83-12.08Zm-57,33.82a2.74,2.74,0,0,1,1,3.3l0,.09a8.23,8.23,0,0,1-2.37,1c-.49,0-1,0-1-.48a35.88,35.88,0,0,1-11-8.68,33.86,33.86,0,0,1-5.86,4.82c0,.47-.48.47-1,.47a2.5,2.5,0,0,1-1.93-1c-1-1-.48-2.41.49-3.37a31.34,31.34,0,0,0,5.41-4.75,35.31,35.31,0,0,1-5.68-16H26.28a2.28,2.28,0,0,1-2.42-2.14v-.27A2.29,2.29,0,0,1,26,40.86h9.94V38.45A2.28,2.28,0,0,1,38.08,36h.27a2.28,2.28,0,0,1,2.42,2.14v2.68h9.66A2.28,2.28,0,0,1,52.84,43a1.22,1.22,0,0,1,0,.27,2.27,2.27,0,0,1-2.14,2.41,1.22,1.22,0,0,1-.27,0h-3.3a33.72,33.72,0,0,1-6.21,16A33.44,33.44,0,0,0,51.39,70.34Zm44.92,6.75a2.28,2.28,0,0,1-2.13,2.42H93.9a2.29,2.29,0,0,1-2.42-2.14V69.84H77v7.25a2.28,2.28,0,0,1-2.13,2.42h-.28a2.28,2.28,0,0,1-2.42-2.14,1.31,1.31,0,0,1,0-.28V57.77a7.43,7.43,0,0,1,7.25-7.24h9.66a7.43,7.43,0,0,1,7.24,7.24Z"/><path id="Path_538" data-name="Path 538" class="cls-1" d="M89.09,55.32H79.34a2.3,2.3,0,0,0-2.43,2.17,1.22,1.22,0,0,0,0,.27v7.31H91.52V57.76a2.29,2.29,0,0,0-2.16-2.44Z"/><path id="Path_539" data-name="Path 539" class="cls-1" d="M38.14,57.62a29.36,29.36,0,0,0,4.21-12H34.2A31,31,0,0,0,38.14,57.62Z"/></g></svg>