<svg id="Layer_1" data-name="Layer 1" xmlns="http://www.w3.org/2000/svg" viewBox="0 0 20 20"><defs><style>.cls-1{fill:#43215c;}</style></defs><title>Mini</title><g id="Group_1117" data-name="Group 1117"><path id="Path_526" data-name="Path 526" class="cls-1" d="M9.9.64a6.55,6.55,0,0,1,5.89,9.64l-1-.56a5.37,5.37,0,1,0-9.39.14l-1,.6A6.55,6.55,0,0,1,9.9.64ZM10,3a4.13,4.13,0,0,1,2.7,1,4.18,4.18,0,0,1,.84,5.35l-1-.63a3,3,0,1,0-5.09,0l-1,.61A4.18,4.18,0,0,1,10,3ZM10,6.6a.59.59,0,0,1,.6.57V12h0v.59h4.76v1.9a4.17,4.17,0,0,1-8.34,0V13.17a.59.59,0,0,1,.57-.6h.61V15h1.2V7.21A.59.59,0,0,1,10,6.6Z"/></g></svg>