<svg id="Layer_1" data-name="Layer 1" xmlns="http://www.w3.org/2000/svg" viewBox="0 0 42 42"><defs><style>.cls-1{fill:#47c0b0;}</style></defs><title>Icon</title><rect id="Rectangle_790" data-name="Rectangle 790" class="cls-1" x="17.98" y="17.5" width="4" height="4.31"/><path class="cls-1" d="M35.91,5.06H29a.79.79,0,0,0-.79.79v3H24.85A3.15,3.15,0,0,0,21.69,12v5H19.28a.79.79,0,0,0-.79.79v2.41H13.77v-3h0a.79.79,0,0,0-.79-.79H6.08a.79.79,0,0,0-.78.79v7.58h0a.79.79,0,0,0,.79.79H13a.8.8,0,0,0,.79-.79v-3h4.72V24.2a.79.79,0,0,0,.79.79h2.41v5a3.17,3.17,0,0,0,3.16,3.16h3.38v3h0a.79.79,0,0,0,.79.78h6.89a.79.79,0,0,0,.79-.79V28.58h0a.79.79,0,0,0-.79-.79H29a.79.79,0,0,0-.79.79v3H24.85A1.57,1.57,0,0,1,23.27,30V25h2.06a.79.79,0,0,0,.79-.79V17.8h0a.79.79,0,0,0-.79-.79H23.27V12h0a1.58,1.58,0,0,1,1.58-1.58h3.38v3h0a.78.78,0,0,0,.79.78h6.89a.79.79,0,0,0,.79-.79V5.85h0A.79.79,0,0,0,35.91,5.06Z"/></svg>