<svg id="Layer_1" data-name="Layer 1" xmlns="http://www.w3.org/2000/svg" viewBox="0 0 42 42"><defs><style>.cls-1{fill:#47c0b0;}</style></defs><title>Icon</title><path id="Path_526" data-name="Path 526" class="cls-1" d="M20.81,4.1a12.29,12.29,0,0,1,8,2.73,12.41,12.41,0,0,1,3.18,15.51l-2-1.06a10.15,10.15,0,1,0-17.75.27l-1.95,1.12A12.39,12.39,0,0,1,20.81,4.1ZM21,8.61a7.88,7.88,0,0,1,6.71,12l-1.93-1.17a5.64,5.64,0,1,0-9.63,0l-1.93,1.17A7.89,7.89,0,0,1,21,8.61Zm0,6.77a1.1,1.1,0,0,1,1.13,1.07v9.06h0v1.12h9v3.58a7.89,7.89,0,0,1-15.78-.06l0-2.37a1.11,1.11,0,0,1,1.07-1.14h1.17v4.51H19.9V16.51A1.09,1.09,0,0,1,21,15.38Z"/></svg>