<svg id="Layer_1" data-name="Layer 1" xmlns="http://www.w3.org/2000/svg" viewBox="0 0 20 20"><defs><style>.cls-1{fill:#43215c;}</style></defs><title>Mini</title><g id="Group_1118" data-name="Group 1118"><rect id="Rectangle_789" data-name="Rectangle 789" class="cls-1" x="14.47" y="14.29" width="2.22" height="2.51"/><rect id="Rectangle_790" data-name="Rectangle 790" class="cls-1" x="9.68" y="8.98" width="1.87" height="2.02"/><rect id="Rectangle_791" data-name="Rectangle 791" class="cls-1" x="3.3" y="8.74" width="2.22" height="2.51"/><rect id="Rectangle_792" data-name="Rectangle 792" class="cls-1" x="14.47" y="3.18" width="2.22" height="2.51"/><path id="Path_527" data-name="Path 527" class="cls-1" d="M17.36,6.44a.38.38,0,0,1-.37.37H13.76a.36.36,0,0,1-.37-.37h0V5H11.8a.74.74,0,0,0-.74.74V8.13h1a.37.37,0,0,1,.37.37h0v3a.38.38,0,0,1-.37.37h-1v2.35a.74.74,0,0,0,.74.74h1.59V13.55a.37.37,0,0,1,.37-.37H17a.38.38,0,0,1,.37.37h0V17.1a.37.37,0,0,1-.37.37H13.76a.36.36,0,0,1-.37-.37h0V15.7H11.8a1.49,1.49,0,0,1-1.48-1.48V11.87H9.19a.38.38,0,0,1-.37-.37h0V10.37H6.61v1.41a.38.38,0,0,1-.37.37H3a.38.38,0,0,1-.37-.37h0V8.22A.38.38,0,0,1,3,7.85H6.24a.38.38,0,0,1,.37.37h0V9.63H8.82V8.5a.38.38,0,0,1,.37-.37h1.13V5.78A1.49,1.49,0,0,1,11.8,4.3h1.59V2.9a.36.36,0,0,1,.37-.37H17a.37.37,0,0,1,.37.37h0Z"/></g></svg>