<svg id="Layer_1" data-name="Layer 1" xmlns="http://www.w3.org/2000/svg" viewBox="0 0 20 20"><defs><style>.cls-1{fill:#43215c;}</style></defs><title>Mini</title><g id="Group_1125" data-name="Group 1125"><path id="Path_537" data-name="Path 537" class="cls-1" d="M17.16,5.94H11.82l1.12-2.56a.39.39,0,0,0-.2-.52h0a.38.38,0,0,0-.51.2l0,0-.55,1.28H2.83A1.87,1.87,0,0,0,.94,6.21v5.32a1.87,1.87,0,0,0,1.85,1.88h.42V15.3a.4.4,0,0,0,.22.3c0,.08.08.08.15.08a.27.27,0,0,0,.23-.08l2.94-2.19h.94L6.61,15.9a.4.4,0,0,0,.19.52H7a.42.42,0,0,0,.38-.22l.56-1.29h5.33l2.94,2.19a.32.32,0,0,0,.23.07c.07,0,.07,0,.15-.07s.23-.15.23-.3V15h.37a1.87,1.87,0,0,0,1.89-1.85V7.83a1.87,1.87,0,0,0-1.85-1.89Zm-8.9,5.28a.42.42,0,0,1,.15.52v0A1.49,1.49,0,0,1,8,11.9c-.07,0-.15,0-.15-.07a5.58,5.58,0,0,1-1.73-1.36,5.1,5.1,0,0,1-.91.76c0,.07-.08.07-.15.07a.38.38,0,0,1-.3-.15.37.37,0,0,1,.06-.52h0a4.55,4.55,0,0,0,.84-.74,5.62,5.62,0,0,1-.89-2.5H4.34A.37.37,0,0,1,4,7V7a.36.36,0,0,1,.34-.38H5.85V6.25a.36.36,0,0,1,.34-.38h0a.36.36,0,0,1,.37.34v.41H8.11A.37.37,0,0,1,8.49,7V7a.37.37,0,0,1-.34.38H7.59a5.13,5.13,0,0,1-1,2.49A5.21,5.21,0,0,0,8.26,11.22Zm7,1.06a.37.37,0,0,1-.34.38h0a.37.37,0,0,1-.38-.35V11.15H12.26v1.13a.36.36,0,0,1-.34.38h0a.36.36,0,0,1-.37-.34V9.26a1.16,1.16,0,0,1,1.13-1.13h1.51a1.16,1.16,0,0,1,1.13,1.13Z"/><path id="Path_538" data-name="Path 538" class="cls-1" d="M14.15,8.88H12.63a.36.36,0,0,0-.38.34v1.19h2.28V9.26a.37.37,0,0,0-.34-.38Z"/><path id="Path_539" data-name="Path 539" class="cls-1" d="M6.19,9.24a4.56,4.56,0,0,0,.66-1.87H5.58A4.74,4.74,0,0,0,6.19,9.24Z"/></g></svg>