<svg id="Layer_1" data-name="Layer 1" xmlns="http://www.w3.org/2000/svg" viewBox="0 0 20 20"><defs><style>.cls-1{fill:#43215c;}</style></defs><title>Mini</title><g id="Group_1127" data-name="Group 1127"><path id="Path_540" data-name="Path 540" class="cls-1" d="M16.19,10.12a7.29,7.29,0,0,0,.63-3.48A5.57,5.57,0,0,0,11.3,1h-.24A9.22,9.22,0,0,0,6.43,2.13a4.22,4.22,0,0,0-2.14,4,5.58,5.58,0,0,1-.47,2.7c-.18.34-.44.84-.66,1.23H4l.23,0,.17.09.15.17,0,.1a.14.14,0,0,1,0,.06l0,.13a.86.86,0,0,1,0,.16c0,.1,0,.24,0,.4v1.75c0,.32,0,.65,0,.94A1.62,1.62,0,0,0,5,14.8c.14.18.36.33,1,.33H7.87a.67.67,0,0,1,.64.65V19h6.65a5.22,5.22,0,0,1-.45-.92,7.21,7.21,0,0,1,.15-5.4A25.6,25.6,0,0,1,16.19,10.12ZM13.66,8.9a.42.42,0,0,1-.06.5L13,10a.41.41,0,0,1-.5,0l-.26-.16a2.08,2.08,0,0,1-.32.12l-.06.3a.44.44,0,0,1-.4.32H10.6a.42.42,0,0,1-.39-.32L10.14,10a1.88,1.88,0,0,1-.3-.12L9.57,10a.42.42,0,0,1-.51,0l-.6-.62a.41.41,0,0,1-.05-.5l.17-.27-.12-.28-.32-.08a.43.43,0,0,1-.31-.39V7a.43.43,0,0,1,.31-.4l.32-.07.12-.29L8.41,6a.41.41,0,0,1,.05-.5l.62-.62a.42.42,0,0,1,.5,0L9.85,5l.3-.12.06-.3a.44.44,0,0,1,.4-.32h.87a.44.44,0,0,1,.4.32l.06.3a1.57,1.57,0,0,1,.3.12l.27-.17a.42.42,0,0,1,.5.06l.61.62a.41.41,0,0,1,.06.5l-.16.26.12.31.29.06a.4.4,0,0,1,.32.39v.89a.41.41,0,0,1-.32.39l-.31.07a1.48,1.48,0,0,1-.12.29Z"/><g id="Group_1126" data-name="Group 1126"><circle id="Ellipse_259" data-name="Ellipse 259" class="cls-1" cx="11.06" cy="7.4" r="0.49"/><path id="Path_541" data-name="Path 541" class="cls-1" d="M13.35,7.22A.41.41,0,0,1,13,6.91a2.22,2.22,0,0,0-.24-.6.42.42,0,0,1,0-.43l.1-.17-.17-.17-.17.1a.42.42,0,0,1-.43,0,2.22,2.22,0,0,0-.6-.24.41.41,0,0,1-.31-.31l-.05-.19h-.23l0,.2a.41.41,0,0,1-.31.31,2.19,2.19,0,0,0-.6.23.43.43,0,0,1-.44,0l-.16-.1-.17.17.11.18a.42.42,0,0,1,0,.43,2.09,2.09,0,0,0-.24.58.42.42,0,0,1-.31.31l-.2,0V7.5l.2,0a.42.42,0,0,1,.31.31,2.09,2.09,0,0,0,.24.58.43.43,0,0,1,0,.44l-.12.18.16.16.18-.11a.39.39,0,0,1,.44,0,2.22,2.22,0,0,0,.6.24.44.44,0,0,1,.31.31l0,.2h.22l0-.18a.41.41,0,0,1,.31-.32,2.16,2.16,0,0,0,.61-.24.43.43,0,0,1,.44,0l.17.1.15-.15-.1-.18a.42.42,0,0,1,0-.43A2,2,0,0,0,13,7.86a.41.41,0,0,1,.31-.3l.2,0V7.28Zm-2.29,1.4A1.22,1.22,0,1,1,12.28,7.4a1.22,1.22,0,0,1-1.22,1.22Z"/></g></g></svg>