<svg id="Layer_1" data-name="Layer 1" xmlns="http://www.w3.org/2000/svg" viewBox="0 0 125 125"><defs><style>.cls-1{fill:#47c0b0;}</style></defs><title>Icon</title><rect id="Rectangle_789" data-name="Rectangle 789" class="cls-1" x="88.88" y="91.74" width="15.81" height="17.86"/><rect id="Rectangle_790" data-name="Rectangle 790" class="cls-1" x="54.82" y="53.98" width="13.33" height="14.36"/><rect id="Rectangle_791" data-name="Rectangle 791" class="cls-1" x="9.42" y="52.23" width="15.81" height="17.86"/><rect id="Rectangle_792" data-name="Rectangle 792" class="cls-1" x="88.88" y="12.71" width="15.81" height="17.86"/><path class="cls-1" d="M112.2,9.36h-23A2.62,2.62,0,0,0,86.61,12V22H75.32A10.53,10.53,0,0,0,64.79,32.51V49.2h-8a2.62,2.62,0,0,0-2.62,2.64v8H38.39v-10a2.63,2.63,0,0,0-2.63-2.62h-23a2.62,2.62,0,0,0-2.6,2.64V75.13h0a2.62,2.62,0,0,0,2.62,2.62h23a2.62,2.62,0,0,0,2.62-2.62v-10H54.13v8a2.63,2.63,0,0,0,2.63,2.63h8V92.5A10.56,10.56,0,0,0,75.32,103H86.61v10h0a2.61,2.61,0,0,0,2.62,2.61h23a2.62,2.62,0,0,0,2.62-2.62V87.76h0a2.63,2.63,0,0,0-2.63-2.63h-23a2.62,2.62,0,0,0-2.62,2.63v10H75.32a5.27,5.27,0,0,1-5.27-5.25V75.79h6.89a2.64,2.64,0,0,0,2.64-2.63V51.83h0a2.64,2.64,0,0,0-2.64-2.64H70.05V32.5h0a5.27,5.27,0,0,1,5.27-5.25H86.61v10h0a2.62,2.62,0,0,0,2.62,2.62h23a2.62,2.62,0,0,0,2.63-2.62V12h0A2.63,2.63,0,0,0,112.2,9.36Z"/></svg>