<svg id="Layer_1" data-name="Layer 1" xmlns="http://www.w3.org/2000/svg" viewBox="0 0 125 125"><defs><style>.cls-1{fill:#47c0b0;}</style></defs><title>Icon</title><path id="Path_529" data-name="Path 529" class="cls-1" d="M30.63,21.64c.92-.05,1.87-.05,2.8,0s1.87.1,2.8.21c7.44.82,14.85,4.12,19.45,11.36a33.6,33.6,0,0,0,6.32,8,17.26,17.26,0,0,0,12.47,4.27c4-.11,8.89-3.39,13.41-7,2.27-1.78,4.46-3.65,6.56-5a17.91,17.91,0,0,1,3.27-1.79L95.62,28h12.83L102,39.07,99.77,35.2a15.51,15.51,0,0,0-3,1.67c-1.84,1.22-4,3-6.32,4.77-4.62,3.63-9.89,7.69-15.78,7.86a22.06,22.06,0,0,1-15.32-5.18,36.36,36.36,0,0,1-7.06-8.84c-3.88-6.11-9.86-9-16.41-9.73a37.31,37.31,0,0,0-19,3.26l-1.77-3.63A41.83,41.83,0,0,1,30.63,21.64ZM121.09,112H3.91V13h4v95H14V37.22H26.13v70.72h8.09V73.56H46.34v34.38h8.09V55.22H66.55v52.72h8.32V85.69H87v22.25h8V51.15h12.16v56.79h13.85Z"/></svg>