<svg id="Layer_1" data-name="Layer 1" xmlns="http://www.w3.org/2000/svg" viewBox="0 0 125 125"><defs><style>.cls-1{fill:#47c0b0;}</style></defs><title>Icon</title><path id="Path_534" data-name="Path 534" class="cls-1" d="M121.9,79.83a7.62,7.62,0,0,1-7.43,7.42h-3a7.64,7.64,0,0,1-4.42,4.42v3A22.19,22.19,0,0,1,85,116.94H76.83a7.61,7.61,0,0,1-6.9,5H65A7.44,7.44,0,0,1,65,107h5a7.61,7.61,0,0,1,6.9,5h8A17.53,17.53,0,0,0,102.1,94.67V92.2H99.62A2.35,2.35,0,0,1,97.14,90V60a2.34,2.34,0,0,1,2.19-2.47h2.77v-5A38.67,38.67,0,0,0,93.37,27.9a4.65,4.65,0,0,1-1.67.44H90.22a6.35,6.35,0,0,1-5-2c-6.43-5.44-14.35-8.9-22.76-8.9s-16.83,3-22.77,8.9a7.47,7.47,0,0,1-5.45,2,6.44,6.44,0,0,1-2.48-.59,40.06,40.06,0,0,0-8.9,24.84v5h2.47a2.33,2.33,0,0,1,2.48,2.17,1.4,1.4,0,0,1,0,.29V89.72a2.33,2.33,0,0,1-2.2,2.47,1.31,1.31,0,0,1-.28,0H20.43a7.55,7.55,0,0,1-6.9-5h-3A7.6,7.6,0,0,1,3.1,79.83V69.92a7.61,7.61,0,0,1,7.43-7.42h3A7.63,7.63,0,0,1,18.13,58c0-.18-.18-.3-.18-.49v-5A44.37,44.37,0,0,1,28.4,24.16c-1.34-2.92-1-6.62,1.92-8.68a49.31,49.31,0,0,1,65.34,0,7.61,7.61,0,0,1,1.48,9.44A44.29,44.29,0,0,1,107,52.59v5c0,.19-.15.31-.18.49a7.63,7.63,0,0,1,4.6,4.46h3a7.61,7.61,0,0,1,7.43,7.42Z"/></svg>