<svg id="Layer_1" data-name="Layer 1" xmlns="http://www.w3.org/2000/svg" viewBox="0 0 125 125"><defs><style>.cls-1{fill:#47c0b0;}</style></defs><title>Icon</title><path id="Path_533" data-name="Path 533" class="cls-1" d="M106.24,99c0,12.08-19.59,21.87-43.74,21.87S18.76,111,18.76,99V86.63c0,12.1,19.58,19.59,43.74,19.59s43.74-7.5,43.74-19.59Zm0-21.88C106.24,89.15,86.65,99,62.5,99s-43.74-9.8-43.74-21.88V64.76c0,12.08,19.58,19.61,43.74,19.61s43.74-7.53,43.74-19.61Zm0-21.87c0,12.08-19.59,21.87-43.74,21.87S18.76,67.28,18.76,55.2V42.9C18.76,55,38.34,62.51,62.5,62.51S106.24,55,106.24,42.9Zm0-21.87c0,12.08-19.59,21.87-43.74,21.87S18.76,45.41,18.76,33.33V26C18.76,14,38.34,4.18,62.5,4.18S106.24,14,106.24,26Z"/></svg>