<svg id="Layer_1" data-name="Layer 1" xmlns="http://www.w3.org/2000/svg" viewBox="0 0 440 125"><defs><style>.cls-1{fill:#444f5a;}.cls-2{fill:#47c0b0;}</style></defs><title>Kuzen_No-border</title><path class="cls-1" d="M115.64,50.77V90.89c0,3.76.31,8.84,3.94,12.44a14,14,0,0,0,18.75,0c3.63-3.6,3.93-8.68,3.93-12.44V50.77h18.45V94.16c0,6.39-.76,14.91-8,21.78-6,5.73-15.72,8-23.73,8s-17.7-2.29-23.75-8c-7.26-6.87-8-15.39-8-21.78V50.77Z"/><path class="cls-1" d="M218.79,106.06h34.63v17.48h-67l37.19-55.29H192.18V50.77H256Z"/><path class="cls-1" d="M346,101.84c-2,5.25-9.38,22.12-32.21,22.12-10.58,0-18.61-3.27-25.1-10-7.26-7.38-10.29-16.55-10.29-27.7,0-14.08,5.3-22.77,10-27.85,7.72-8.19,16.78-10,24.65-10,13.31,0,21,5.73,25.55,11.63,7,9,7.87,20.15,7.87,27.85v1.64h-49c0,4.27,1.06,8.85,3.17,12a15.26,15.26,0,0,0,13.16,6.71,16.66,16.66,0,0,0,15.27-9.34ZM329.05,76.77c-1.51-9.67-8.77-14.26-15.58-14.26s-13.91,4.76-15.42,14.26Z"/><path class="cls-1" d="M375.8,50.77h18.44v9.42c3.48-5.38,9.68-11.76,20.27-11.76,5.74,0,14.21,1.84,19.35,8.9,4.53,6.21,5.14,13.44,5.14,20.5v45.71H420.55V83.88c0-4-.15-10.42-3.48-14.28a11.14,11.14,0,0,0-8.62-3.7,12.26,12.26,0,0,0-11.34,6.38c-2.72,4.71-2.87,9.92-2.87,14.12v37.14H375.8Z"/><rect class="cls-1" x="1" y="1.04" width="18.45" height="122.5"/><polygon class="cls-2" points="72.29 50.77 49.24 50.77 19.45 85.61 48.63 123.54 72.29 123.54 41.6 86.1 72.29 50.77"/></svg>