<svg id="Layer_1" data-name="Layer 1" xmlns="http://www.w3.org/2000/svg" viewBox="0 0 20 20"><defs><style>.cls-1{fill:#47c0b0;}</style></defs><title>Best-Features-small</title><path class="cls-1" d="M13.48,1a1.74,1.74,0,0,0-1.22,3L10.66,6.6A2.84,2.84,0,0,0,10,6.52a2.76,2.76,0,0,0-2.09,1l-.35-.27-.42.56.38.29a2.63,2.63,0,0,0,0,2.48l-4,2.64a2.08,2.08,0,1,0,.88,1.69,2,2,0,0,0-.38-1.18l3.86-2.57a2.75,2.75,0,0,0,2.09,1,2.71,2.71,0,0,0,1.24-.31l.27.38.57-.4-.26-.37a2.75,2.75,0,0,0,1-2.09s0,0,0,0l4.42-.59a1.38,1.38,0,0,0,1.16.63A1.39,1.39,0,1,0,17,7.91S17,8,17,8l-4.29.57a2.79,2.79,0,0,0-1.37-1.71L12.85,4.3a1.69,1.69,0,0,0,.63.13,1.74,1.74,0,1,0,0-3.48Zm0,.69a1,1,0,1,1,0,2.09,1,1,0,0,1,0-2.09Zm-9,2.09a1.4,1.4,0,1,0,.75,2.56l.29.23L5.89,6l-.24-.18a1.46,1.46,0,0,0,.17-.65A1.4,1.4,0,0,0,4.43,3.73Zm0,.7a.7.7,0,1,1-.7.7A.7.7,0,0,1,4.43,4.43Zm2,2L6,6.94l.56.41L7,6.8ZM10,7.21A2.09,2.09,0,1,1,7.91,9.3,2.09,2.09,0,0,1,10,7.21Zm8.36,0a.7.7,0,0,1,0,1.4.7.7,0,0,1,0-1.4Zm-5.87,5.11-.57.41.4.57.57-.41Zm.81,1.14-.57.4.4.57L13.7,14Zm-11,0A1.4,1.4,0,1,1,1,14.87,1.39,1.39,0,0,1,2.34,13.48Zm11.77,1.11-.57.41.4.56.57-.4Zm1.81,1a1.71,1.71,0,0,0-.92.27l-.09-.11-.56.4.14.2a1.68,1.68,0,0,0-.31,1,1.74,1.74,0,1,0,1.74-1.74Zm0,.7a1,1,0,1,1-1,1A1,1,0,0,1,15.92,16.27Z"/></svg>