<svg id="Layer_1" data-name="Layer 1" xmlns="http://www.w3.org/2000/svg" viewBox="0 0 20 20"><defs><style>.cls-1{fill:#47c0b0;}</style></defs><title>Best-Features-small</title><path class="cls-1" d="M12.81.62H1A.4.4,0,0,0,.62,1v11.8A.4.4,0,0,0,1,13.2H5.6A.4.4,0,0,0,6,12.81a.39.39,0,0,0-.39-.39H1.41v-11h11V5.6a.39.39,0,1,0,.77,0V1A.39.39,0,0,0,12.8.62"/><path class="cls-1" d="M19,17.9a.37.37,0,0,0-.37.37h0v.37h-.37a.37.37,0,0,0-.34.4.37.37,0,0,0,.34.34H19a.37.37,0,0,0,.37-.37v-.74A.37.37,0,0,0,19,17.9"/><path class="cls-1" d="M15.55,18.64H14.32A.37.37,0,0,0,14,19a.38.38,0,0,0,.35.35h1.23a.37.37,0,0,0,.39-.35.36.36,0,0,0-.34-.39,0,0,0,0,0,0,0"/><path class="cls-1" d="M11.6,18.64H10.37A.38.38,0,0,0,10,19a.38.38,0,0,0,.35.4H11.6a.38.38,0,0,0,.34-.4.37.37,0,0,0-.34-.34"/><path class="cls-1" d="M7.9,18.64H7.53v-.37a.38.38,0,0,0-.37-.37.37.37,0,0,0-.37.37h0V19a.37.37,0,0,0,.37.37H7.9a.37.37,0,0,0,0-.74"/><path class="cls-1" d="M7.16,12a.37.37,0,0,0,.37-.37V10.37A.38.38,0,0,0,7.16,10a.37.37,0,0,0-.37.37h0V11.6a.37.37,0,0,0,.36.37h0"/><path class="cls-1" d="M6.79,15.55a.37.37,0,0,0,.37.37.38.38,0,0,0,.37-.37V14.32A.38.38,0,0,0,7.16,14a.37.37,0,0,0-.37.37h0Z"/><path class="cls-1" d="M7.9,6.79H7.16a.37.37,0,0,0-.37.37h0V7.9a.37.37,0,0,0,.37.37.38.38,0,0,0,.37-.37h0V7.53H7.9a.37.37,0,0,0,0-.74h0"/><path class="cls-1" d="M11.6,6.79H10.37a.37.37,0,0,0,0,.74H11.6A.38.38,0,0,0,12,7.16a.37.37,0,0,0-.37-.37h0"/><path class="cls-1" d="M15.55,6.79H14.32a.37.37,0,1,0,0,.74h1.23a.37.37,0,1,0,0-.74h0"/><path class="cls-1" d="M19,6.79h-.74a.37.37,0,0,0,0,.74h.37V7.9a.38.38,0,0,0,.35.4A.37.37,0,0,0,19.37,8a0,0,0,0,0,0,0V7.16A.37.37,0,0,0,19,6.79"/><path class="cls-1" d="M19,14a.36.36,0,0,0-.37.36h0v1.24A.38.38,0,0,0,19,16a.37.37,0,0,0,.39-.35,0,0,0,0,0,0,0V14.32A.37.37,0,0,0,19,14"/><path class="cls-1" d="M19,10a.37.37,0,0,0-.37.37h0V11.6A.38.38,0,0,0,19,12a.38.38,0,0,0,.34-.35V10.37A.36.36,0,0,0,19,10"/><path class="cls-1" d="M16.3,12.79a.26.26,0,0,1-.18.23l-2,.71a.63.63,0,0,0-.39.39l-.71,2a.25.25,0,0,1-.24.18.26.26,0,0,1-.24-.18l-2.07-5.31a.26.26,0,0,1,.06-.28.26.26,0,0,1,.18-.07h.1l5.32,2.07a.23.23,0,0,1,.17.24"/></svg>