<svg id="Layer_1" data-name="Layer 1" xmlns="http://www.w3.org/2000/svg" viewBox="0 0 42 42"><defs><style>.cls-1{fill:#925de2;}.cls-2{fill:#fff;}</style></defs><title>Icon-SocialMedia</title><g id="Group_1105" data-name="Group 1105"><g id="Group_1103" data-name="Group 1103"><g id="Group_1100" data-name="Group 1100"><path id="Path_521" data-name="Path 521" class="cls-1" d="M21,41A20,20,0,1,1,41,21,20,20,0,0,1,21,41Z"/></g><g id="Group_1102" data-name="Group 1102"><g id="Group_1101" data-name="Group 1101"><path id="Path_522" data-name="Path 522" class="cls-2" d="M32.26,22.53V30a.33.33,0,0,1-.33.33H28.1a.34.34,0,0,1-.34-.33V23.05c0-1.82-.65-3.06-2.28-3.06a2.46,2.46,0,0,0-2.31,1.65A2.88,2.88,0,0,0,23,22.73V30a.33.33,0,0,1-.33.33H18.85a.32.32,0,0,1-.33-.32h0c0-1.84,0-10.78,0-12.88a.35.35,0,0,1,.33-.34h3.84a.34.34,0,0,1,.33.34v1.58l0,0h0v0a4.48,4.48,0,0,1,4.06-2.24c3,0,5.19,1.94,5.19,6.1ZM11.84,30.3h3.84A.34.34,0,0,0,16,30V17.08a.34.34,0,0,0-.34-.33H11.84a.33.33,0,0,0-.33.33V30A.33.33,0,0,0,11.84,30.3Z"/></g></g></g><g id="Group_1104" data-name="Group 1104"><circle id="Ellipse_257" data-name="Ellipse 257" class="cls-2" cx="13.59" cy="12.56" r="2.41"/></g></g></svg>