<svg id="Layer_1" data-name="Layer 1" xmlns="http://www.w3.org/2000/svg" viewBox="0 0 42 42"><defs><style>.cls-1{fill:#925de2;}.cls-2{fill:#fff;}</style></defs><title>Icon-SocialMedia</title><g id="Group_1099" data-name="Group 1099"><g id="Group_1096" data-name="Group 1096"><path id="Path_519" data-name="Path 519" class="cls-1" d="M21,41A20,20,0,1,1,41,21,20,20,0,0,1,21,41Z"/></g><g id="Group_1098" data-name="Group 1098"><g id="Group_1097" data-name="Group 1097"><path id="Path_520" data-name="Path 520" class="cls-2" d="M33.05,18a5.16,5.16,0,0,0-5.17-5.17H14.48A5.17,5.17,0,0,0,9.31,18v6.28a5.17,5.17,0,0,0,5.17,5.16h13.4a5.16,5.16,0,0,0,5.17-5.16ZM24.6,21.41l-5.35,2.93c-.23.13-.44,0-.44-.31V18c0-.27.21-.44.45-.31l5.38,3.09a.34.34,0,0,1,.1.48.27.27,0,0,1-.15.13Z"/></g></g></g></svg>