<svg id="Layer_1" data-name="Layer 1" xmlns="http://www.w3.org/2000/svg" viewBox="0 0 30 30"><defs><style>.cls-1{fill:#00c300;}.cls-2{fill:#fff;}</style></defs><title>SocialMedia_LINE</title><g id="surface1"><path id="Path_20458" data-name="Path 20458" class="cls-1" d="M6.06,29H23.94A5.05,5.05,0,0,0,29,24V6.06A5.05,5.05,0,0,0,24,1H6.06A5.05,5.05,0,0,0,1,6.05V23.94A5.05,5.05,0,0,0,6.05,29Z"/><path id="Path_20459" data-name="Path 20459" class="cls-2" d="M25.2,13.77C25.2,9.21,20.63,5.5,15,5.5S4.81,9.21,4.81,13.77c0,4.09,3.63,7.51,8.53,8.16.33.07.78.22.9.51a2.19,2.19,0,0,1,0,.92s-.12.72-.15.87-.2,1,.88.55a33,33,0,0,0,8-5.92h0A7.38,7.38,0,0,0,25.2,13.77ZM11,16.48H9A.52.52,0,0,1,8.46,16h0v-4A.53.53,0,0,1,9,11.37a.53.53,0,0,1,.53.53v3.52H11a.54.54,0,0,1,0,1.07Zm2.1-.53A.54.54,0,0,1,12,16v-4a.54.54,0,1,1,1.07-.05V16ZM18,16a.54.54,0,0,1-.54.53.55.55,0,0,1-.43-.21L15,13.44V16a.54.54,0,1,1-1.07,0v-4a.53.53,0,0,1,1-.32l2.08,2.83V11.9a.52.52,0,0,1,.55-.51.54.54,0,0,1,.52.51Zm3.28-2.56a.54.54,0,0,1,0,1.07H19.78v.95h1.49a.54.54,0,0,1,.5.57.53.53,0,0,1-.5.5h-2A.54.54,0,0,1,18.7,16v-4a.54.54,0,0,1,.54-.54h2a.55.55,0,0,1,.5.58.54.54,0,0,1-.5.49H19.77v1h1.5Z"/></g></svg>