<svg id="Layer_1" data-name="Layer 1" xmlns="http://www.w3.org/2000/svg" viewBox="0 0 42 42"><defs><style>.cls-1{fill:#47c0b0;}</style></defs><title>Icon</title><path id="Path_534" data-name="Path 534" class="cls-1" d="M38.82,26.2a2.28,2.28,0,0,1-2.23,2.22h-.9a2.28,2.28,0,0,1-1.32,1.33v.9a6.66,6.66,0,0,1-6.63,6.68H25.3a2.28,2.28,0,0,1-2.07,1.49H21.74a2.23,2.23,0,0,1,0-4.46h1.49a2.27,2.27,0,0,1,2.07,1.49h2.38a5.27,5.27,0,0,0,5.2-5.2v-.74h-.74a.71.71,0,0,1-.75-.66v-9a.69.69,0,0,1,.66-.73h.83V18a11.57,11.57,0,0,0-2.62-7.41,1.28,1.28,0,0,1-.5.13h-.44a1.92,1.92,0,0,1-1.49-.59A10.67,10.67,0,0,0,21,7.49a9.65,9.65,0,0,0-6.83,2.67,2.24,2.24,0,0,1-1.64.59,1.92,1.92,0,0,1-.74-.18A12,12,0,0,0,9.12,18v1.49h.74a.7.7,0,0,1,.75.65v9a.71.71,0,0,1-.66.74H8.38a2.27,2.27,0,0,1-2.07-1.49h-.9A2.28,2.28,0,0,1,3.18,26.2v-3A2.29,2.29,0,0,1,5.41,21h.9a2.29,2.29,0,0,1,1.38-1.34c0-.05-.06-.09-.06-.14V18A13.37,13.37,0,0,1,10.77,9.5a2.09,2.09,0,0,1,.57-2.61A14.81,14.81,0,0,1,31,6.89a2.28,2.28,0,0,1,.44,2.83,13.24,13.24,0,0,1,3,8.31v1.49c0,.05,0,.09,0,.14A2.29,2.29,0,0,1,35.69,21h.9a2.29,2.29,0,0,1,2.23,2.23Z"/></svg>