<svg id="Layer_1" data-name="Layer 1" xmlns="http://www.w3.org/2000/svg" viewBox="0 0 20 20"><defs><style>.cls-1{fill:#43215c;}</style></defs><title>Mini</title><path id="Path_534" data-name="Path 534" class="cls-1" d="M18.35,12.44a1.06,1.06,0,0,1-1,1h-.43a1.05,1.05,0,0,1-.62.62v.43a3.12,3.12,0,0,1-3.11,3.13H12a1.06,1.06,0,0,1-1,.69h-.69a1.07,1.07,0,0,1-1-1,1.09,1.09,0,0,1,1-1H11a1.07,1.07,0,0,1,1,.7h1.12a2.47,2.47,0,0,0,2.44-2.43v-.35h-.35a.33.33,0,0,1-.35-.31V9.65a.32.32,0,0,1,.31-.34h.39v-.7a5.47,5.47,0,0,0-1.23-3.47.86.86,0,0,1-.23.06H13.9a.91.91,0,0,1-.7-.28A5,5,0,0,0,10,3.67,4.53,4.53,0,0,0,6.8,4.92,1.08,1.08,0,0,1,6,5.2a1.06,1.06,0,0,1-.35-.09,5.65,5.65,0,0,0-1.25,3.5v.7h.35a.32.32,0,0,1,.35.3v4.22a.34.34,0,0,1-.31.35H4.08a1.08,1.08,0,0,1-1-.7H2.69a1.06,1.06,0,0,1-1-1V11a1.06,1.06,0,0,1,1-1h.42a1.15,1.15,0,0,1,.65-.63s0,0,0-.07V8.61a6.17,6.17,0,0,1,1.47-4,1,1,0,0,1,.27-1.22,6.92,6.92,0,0,1,9.18,0,1.05,1.05,0,0,1,.21,1.32A6.15,6.15,0,0,1,16.26,8.6v.7s0,0,0,.07a1.12,1.12,0,0,1,.65.63h.42a1.06,1.06,0,0,1,1,1Z"/></svg>