<svg id="Layer_1" data-name="Layer 1" xmlns="http://www.w3.org/2000/svg" viewBox="0 0 125 125"><defs><style>.cls-1{fill:#47c0b0;}</style></defs><title>Icon</title><path id="Path_540" data-name="Path 540" class="cls-1" d="M102.92,63.26C105.3,58.33,107,52.41,107,40.6,107,18.36,89.37,4.06,69.46,4.06c-10.47,0-21.89,2-30.23,7.1S25.32,23.78,25.32,37c0,9.05-1.09,13.71-3.09,17.61-1.16,2.25-2.82,5.45-4.27,8h5.61l1.48.28,1.08.59,1,1.08a7.23,7.23,0,0,1,.35.67c.05.13.1.28.15.42a4.7,4.7,0,0,1,.17.83c.05.38.07.67.09,1,0,.7,0,1.54,0,2.62,0,2.15,0,5.15,0,8.58,0,.91,0,1.84,0,2.8,0,2.12-.1,4.24,0,6.14.16,2.82.75,4.93,1.69,6.11S31.93,96,36.12,96H48.59a4.34,4.34,0,0,1,4.17,4.18v20.81H96.13a39.31,39.31,0,0,1-3-6c-3.13-8.24-5-20.51,1-35.21C97.14,72.44,100.56,68.17,102.92,63.26ZM86.41,55.32A2.69,2.69,0,0,1,86,58.56l-3.94,3.86a2.7,2.7,0,0,1-3.23.33l-1.72-1.08A17.67,17.67,0,0,1,75,62.5l-.41,1.93a2.7,2.7,0,0,1-2.57,2H66.43a2.7,2.7,0,0,1-2.56-2.09l-.43-2a17.44,17.44,0,0,1-2-.79l-1.79,1.14a2.7,2.7,0,0,1-3.3-.36l-4-4a2.73,2.73,0,0,1-.34-3.26l1.13-1.77a19,19,0,0,1-.78-1.85L50.38,51a2.73,2.73,0,0,1-2-2.55V42.8a2.7,2.7,0,0,1,2-2.55l2.07-.51a18.6,18.6,0,0,1,.78-1.85L52.1,36.13a2.69,2.69,0,0,1,.36-3.26l4-4a2.7,2.7,0,0,1,3.24-.36l1.74,1.08a15.56,15.56,0,0,1,2-.76l.43-2a2.68,2.68,0,0,1,2.56-2.07h5.7a2.68,2.68,0,0,1,2.57,2.07l.42,1.94a16.21,16.21,0,0,1,2,.8l1.71-1.07a2.7,2.7,0,0,1,3.25.37l4,4a2.72,2.72,0,0,1,.38,3.25l-1.07,1.71a18,18,0,0,1,.81,2l1.93.42a2.7,2.7,0,0,1,2.07,2.58V48.6a2.71,2.71,0,0,1-2.1,2.58l-2,.41a19.12,19.12,0,0,1-.8,1.93Z"/><g id="Group_1126" data-name="Group 1126"><circle id="Ellipse_259" data-name="Ellipse 259" class="cls-1" cx="69.04" cy="46.13" r="3.21"/><path id="Path_541" data-name="Path 541" class="cls-1" d="M84,45a2.74,2.74,0,0,1-2.07-2A13.31,13.31,0,0,0,80.36,39a2.75,2.75,0,0,1,0-2.85L81,35.11,79.93,34l-1.09.66a2.71,2.71,0,0,1-2.85,0,13.33,13.33,0,0,0-3.9-1.56,2.8,2.8,0,0,1-2-2.06l-.26-1.21h-1.5L68,31.1a2.74,2.74,0,0,1-2,2.06,13.61,13.61,0,0,0-3.91,1.48,2.81,2.81,0,0,1-2.88,0L58.18,34l-1.11,1.1.74,1.16a2.75,2.75,0,0,1,0,2.86,12.81,12.81,0,0,0-1.57,3.74,2.79,2.79,0,0,1-2,2l-1.36.32v1.53l1.36.32a2.79,2.79,0,0,1,2,2,12.7,12.7,0,0,0,1.57,3.74,2.77,2.77,0,0,1,0,2.87l-.75,1.18,1,1.06,1.14-.73a2.78,2.78,0,0,1,2.89,0A12.63,12.63,0,0,0,66,58.7a2.73,2.73,0,0,1,2,2.06l.28,1.29h1.4l.27-1.2a2.79,2.79,0,0,1,2-2.08,13.36,13.36,0,0,0,4-1.56,2.8,2.8,0,0,1,2.85,0l1.1.67,1-1-.69-1.16a2.76,2.76,0,0,1,0-2.84,12.87,12.87,0,0,0,1.56-3.82,2.77,2.77,0,0,1,2.07-2l1.29-.26v-1.6ZM69,54.08a8,8,0,1,1,8-8,8,8,0,0,1-8,8Z"/></g></svg>