<svg id="Layer_1" data-name="Layer 1" xmlns="http://www.w3.org/2000/svg" viewBox="0 0 125 125"><defs><style>.cls-1{fill:#47c0b0;}</style></defs><title>Icon</title><path id="Path_525" data-name="Path 525" class="cls-1" d="M114.17,15.15a4.27,4.27,0,0,1,4.37,4.16V96.84a4.27,4.27,0,0,1-4.17,4.37h-.2a4.23,4.23,0,0,1-4.3-4v-78A4.21,4.21,0,0,1,114.17,15.15Zm-13,6.19V95.75l-77.52-20V48.42ZM10.76,41.07A4.13,4.13,0,0,1,15,44.83a4.23,4.23,0,0,0,.11,1.7V79.8A4.2,4.2,0,0,1,11,84.1h-.2A4.21,4.21,0,0,1,6.46,80V45.37a4.22,4.22,0,0,1,4.11-4.31h.19Zm30.3,48,17.23,4.45v16.32H41.06Z"/></svg>