<svg id="Layer_1" data-name="Layer 1" xmlns="http://www.w3.org/2000/svg" viewBox="0 0 20 20"><defs><style>.cls-1{fill:#43215c;}</style></defs><title>Mini</title><g id="Group_1116" data-name="Group 1116"><path id="Path_525" data-name="Path 525" class="cls-1" d="M17.26,3.34a.61.61,0,0,1,.62.59v10.9a.6.6,0,0,1-.59.61h0a.59.59,0,0,1-.6-.56v-11A.6.6,0,0,1,17.26,3.34Zm-1.82.87V14.67L4.54,11.86V8ZM2.72,7a.58.58,0,0,1,.59.53.65.65,0,0,0,0,.24v4.68a.59.59,0,0,1-.58.6h0a.61.61,0,0,1-.6-.59h0V7.59A.6.6,0,0,1,2.69,7h0ZM7,13.74l2.42.62v2.3H7Z"/></g></svg>