<svg id="Layer_1" data-name="Layer 1" xmlns="http://www.w3.org/2000/svg" viewBox="0 0 42 42"><defs><style>.cls-1{fill:#47c0b0;}</style></defs><title>Icon</title><path id="Path_540" data-name="Path 540" class="cls-1" d="M33.13,21.23a14.52,14.52,0,0,0,1.23-6.8c0-6.67-5.3-11-11.27-11A18.09,18.09,0,0,0,14,5.6c-2.5,1.52-4.17,3.78-4.17,7.76a10.88,10.88,0,0,1-.93,5.28c-.35.68-.85,1.64-1.28,2.41H9.32l.45.08.32.18.29.33s.08.15.1.2a.61.61,0,0,1,0,.12,2.21,2.21,0,0,1,.05.25c0,.12,0,.2,0,.31s0,.46,0,.78c0,.65,0,1.54,0,2.58,0,.27,0,.55,0,.84,0,.63,0,1.27,0,1.84a3.3,3.3,0,0,0,.51,1.83c.28.35.71.65,2,.65h3.74a1.3,1.3,0,0,1,1.25,1.25v6.24h13a11,11,0,0,1-.89-1.78,14.13,14.13,0,0,1,.3-10.57C31.39,24,32.42,22.7,33.13,21.23Zm-5-2.39a.8.8,0,0,1-.12,1L26.87,21a.83.83,0,0,1-1,.1l-.52-.33a4.73,4.73,0,0,1-.62.25l-.12.58a.81.81,0,0,1-.77.61H22.18a.79.79,0,0,1-.77-.62l-.13-.6a6.07,6.07,0,0,1-.59-.24l-.53.34a.8.8,0,0,1-1-.11L18,19.76a.82.82,0,0,1-.1-1l.34-.53a5.55,5.55,0,0,1-.24-.56l-.62-.15a.8.8,0,0,1-.6-.76V15.09a.82.82,0,0,1,.6-.77l.62-.15a5.38,5.38,0,0,1,.24-.55l-.34-.53a.8.8,0,0,1,.11-1L19.2,10.9a.81.81,0,0,1,1-.11l.52.32a6,6,0,0,1,.59-.22l.13-.6a.8.8,0,0,1,.77-.62h1.71a.8.8,0,0,1,.77.62l.13.58a6.07,6.07,0,0,1,.59.24l.52-.32a.81.81,0,0,1,1,.11l1.21,1.22a.8.8,0,0,1,.11,1l-.32.51a5.09,5.09,0,0,1,.25.6l.57.12a.83.83,0,0,1,.63.78v1.73a.81.81,0,0,1-.63.77l-.6.13c-.07.19-.15.39-.24.58Z"/><g id="Group_1126" data-name="Group 1126"><circle id="Ellipse_259" data-name="Ellipse 259" class="cls-1" cx="22.96" cy="16.09" r="0.96"/><path id="Path_541" data-name="Path 541" class="cls-1" d="M27.45,15.74a.85.85,0,0,1-.62-.61A3.83,3.83,0,0,0,26.36,14a.83.83,0,0,1,0-.86l.2-.32-.33-.33-.33.2a.81.81,0,0,1-.85,0,3.83,3.83,0,0,0-1.17-.47.85.85,0,0,1-.61-.62l-.08-.36h-.45l-.08.38a.84.84,0,0,1-.6.62,4.54,4.54,0,0,0-1.18.44.83.83,0,0,1-.86,0l-.32-.2-.33.33.22.35a.83.83,0,0,1,0,.86,3.66,3.66,0,0,0-.47,1.12.83.83,0,0,1-.61.6l-.4.1v.46l.4.09a.86.86,0,0,1,.61.6,3.61,3.61,0,0,0,.47,1.13.83.83,0,0,1,0,.86l-.22.35.31.32.34-.22a.85.85,0,0,1,.87,0,3.73,3.73,0,0,0,1.17.47.82.82,0,0,1,.6.62l.08.39h.42l.08-.36a.85.85,0,0,1,.62-.63,3.94,3.94,0,0,0,1.19-.47.86.86,0,0,1,.85,0l.33.21.31-.3L26.33,19a.81.81,0,0,1,0-.85A4.15,4.15,0,0,0,26.81,17a.81.81,0,0,1,.62-.6l.38-.08v-.47ZM23,18.47a2.39,2.39,0,1,1,2.39-2.38A2.39,2.39,0,0,1,23,18.47Z"/></g></svg>