<svg id="Layer_1" data-name="Layer 1" xmlns="http://www.w3.org/2000/svg" viewBox="0 0 42 42"><defs><style>.cls-1{fill:#47c0b0;}</style></defs><title>Icon</title><path id="Path_525" data-name="Path 525" class="cls-1" d="M36.5,6.79A1.29,1.29,0,0,1,37.81,8V31.3a1.27,1.27,0,0,1-1.25,1.31H36.5a1.26,1.26,0,0,1-1.29-1.2V8A1.27,1.27,0,0,1,36.5,6.79ZM32.61,8.65V31L9.35,25V16.78ZM5.48,14.57A1.24,1.24,0,0,1,6.74,15.7a1.1,1.1,0,0,0,0,.51v10a1.26,1.26,0,0,1-1.23,1.29H5.48a1.26,1.26,0,0,1-1.29-1.23V15.86a1.26,1.26,0,0,1,1.23-1.29ZM14.57,29l5.17,1.34v4.9H14.57Z"/></svg>