<svg id="Layer_1" data-name="Layer 1" xmlns="http://www.w3.org/2000/svg" viewBox="0 0 20 20"><defs><style>.cls-1{fill:#43215c;}</style></defs><title>Mini</title><g id="Group_1120" data-name="Group 1120"><path id="Path_529" data-name="Path 529" class="cls-1" d="M5.52,4.25h.39l.4,0A3.57,3.57,0,0,1,9,5.88,4.83,4.83,0,0,0,9.93,7a2.43,2.43,0,0,0,1.75.6,3.79,3.79,0,0,0,1.89-1c.32-.25.63-.51.92-.71A2.94,2.94,0,0,1,15,5.66l-.29-.51h1.8l-.91,1.56-.31-.55a3,3,0,0,0-.43.24c-.26.18-.56.42-.89.68a4,4,0,0,1-2.22,1.1,3.08,3.08,0,0,1-2.15-.73,5.15,5.15,0,0,1-1-1.24A3,3,0,0,0,6.25,4.84a5.29,5.29,0,0,0-2.66.46l-.25-.51A5.83,5.83,0,0,1,5.52,4.25ZM18.24,17H1.76V3h.57V16.39h.85V6.44H4.89v10H6V11.55H7.73v4.84H8.87V9h1.7v7.42h1.17V13.26h1.71v3.13h1.13v-8h1.71v8h1.95Z"/></g></svg>