<svg id="Layer_1" data-name="Layer 1" xmlns="http://www.w3.org/2000/svg" viewBox="0 0 125 125"><defs><style>.cls-1{fill:#47c0b0;}</style></defs><title>Icon</title><path id="Path_528" data-name="Path 528" class="cls-1" d="M74.93,11.34a44.46,44.46,0,0,1,44.5,44.41v.12A44.33,44.33,0,0,1,99.16,93.08L78.84,69.36v11l0,19.69c-1.32.13-2.61.31-4,.31a44.25,44.25,0,0,1-28.07-10,36.43,36.43,0,0,0-.48-68.57A44.27,44.27,0,0,1,74.93,11.34ZM34.1,27.61A28.48,28.48,0,0,1,62.63,56v.12A28.47,28.47,0,0,1,34.22,84.66H34.1A28.47,28.47,0,0,1,5.57,56.26v-.12A28.47,28.47,0,0,1,34,27.61ZM18,51.92A4.06,4.06,0,1,0,18,60a4.06,4.06,0,0,0,0-8.11Zm16.23,0a4.06,4.06,0,1,0,4,4.06,4.21,4.21,0,0,0-4-4.06Zm16.32,0A4.06,4.06,0,1,0,54.56,56a4.21,4.21,0,0,0-4.06-4.06Zm24.3,0a4.06,4.06,0,1,0,4,4.06A4.21,4.21,0,0,0,74.8,51.92Zm16.23,0a4.06,4.06,0,1,0,4,4.06,4.21,4.21,0,0,0-4-4.06Zm16.32,0A4.06,4.06,0,1,0,111.41,56a4.2,4.2,0,0,0-4.06-4.06ZM87,91.34l14.19,16.58-8.25.49L87,113.66Z"/></svg>