<svg id="Layer_1" data-name="Layer 1" xmlns="http://www.w3.org/2000/svg" viewBox="0 0 125 125"><defs><style>.cls-1{fill:#47c0b0;}</style></defs><title>Icon</title><path id="Path_526" data-name="Path 526" class="cls-1" d="M61.86,6.15A41.35,41.35,0,0,1,99,67l-6.62-3.54a33.83,33.83,0,1,0-59.16.92l-6.52,3.74A41.34,41.34,0,0,1,61.86,6.15Zm.78,15A26.31,26.31,0,0,1,85,61.22l-6.42-3.93a18.79,18.79,0,1,0-32.1-.1L40,61.08a26.29,26.29,0,0,1,22.6-39.89Zm0,22.57a3.68,3.68,0,0,1,3.76,3.59V77.53h0v3.73h30l0,11.95c0,13.87-11.71,25.64-26.3,25.64A26.15,26.15,0,0,1,43.79,93l.09-7.9a3.68,3.68,0,0,1,3.56-3.8h3.88v15h7.51V47.52a3.68,3.68,0,0,1,3.58-3.77Z"/></svg>