<svg id="Layer_1" data-name="Layer 1" xmlns="http://www.w3.org/2000/svg" viewBox="0 0 42 42"><defs><style>.cls-1{fill:#47c0b0;}</style></defs><title>Icon</title><path id="Path_529" data-name="Path 529" class="cls-1" d="M11.44,8.74h.84q.42,0,.84.06A7.68,7.68,0,0,1,19,12.21a9.92,9.92,0,0,0,1.89,2.39,5.22,5.22,0,0,0,3.74,1.28c1.19,0,2.67-1,4-2.09.68-.53,1.33-1.09,2-1.51a5.47,5.47,0,0,1,1-.53l-.62-1.1h3.85L32.85,14l-.67-1.16a4.47,4.47,0,0,0-.91.5c-.55.37-1.2.89-1.9,1.43-1.38,1.09-3,2.31-4.73,2.36A6.65,6.65,0,0,1,20,15.55a10.86,10.86,0,0,1-2.11-2.66A6.44,6.44,0,0,0,13,10a11.3,11.3,0,0,0-5.68,1L6.79,9.86A12.45,12.45,0,0,1,11.44,8.74ZM38.58,35.85H3.42V6.15H4.63V34.63H6.45V13.42h3.64V34.63h2.43V24.32h3.63V34.63h2.43V18.81h3.64V34.63h2.49V28h3.65v6.67h2.41v-17h3.65v17h4.16Z"/></svg>