<svg id="Layer_1" data-name="Layer 1" xmlns="http://www.w3.org/2000/svg" viewBox="0 0 20 20"><defs><style>.cls-1{fill:#47c0b0;}</style></defs><title>Best-Features-small</title><path class="cls-1" d="M18.05,4.23l-.21-.08A11.56,11.56,0,0,0,14,3.52a13.29,13.29,0,0,0-4,.6,11.47,11.47,0,0,0-3.75-.6,13.3,13.3,0,0,0-4.09.63L2,4.23v.65H.62v11.6H19.38V4.88H18.05Zm-7.73.46A12.92,12.92,0,0,1,14,4.16a11.18,11.18,0,0,1,3.42.52v9.66A11.59,11.59,0,0,0,14,13.85a14.06,14.06,0,0,0-3.67.49Zm-7.73,0a12.83,12.83,0,0,1,3.66-.53,10.91,10.91,0,0,1,3.43.53v9.65a11.61,11.61,0,0,0-3.43-.49,14,14,0,0,0-3.66.49V10.8l.32.83,1.52,1.71V11.56a7.43,7.43,0,0,1,4,.16l.21-.61a8.1,8.1,0,0,0-4.25-.2L3.94,9.77a7.52,7.52,0,0,1,4.47,0l.21-.6a8,8,0,0,0-4.91,0L2.59,6.27V4.69ZM2,6.64l.55,1.41,1.16,3,0,.09v.49l-.33-.37L2.59,9,2,7.36l-.23-.6L2,6.67ZM1.26,5.52H2V6l-.69.26Zm17.48,0V15.84H1.26V7.36L2,9.14v6.09l.43-.15a12.28,12.28,0,0,1,3.87-.6,10.77,10.77,0,0,1,3.64.6l.11,0,.11,0a12.38,12.38,0,0,1,3.88-.6,10.86,10.86,0,0,1,3.64.6l.42.15V5.52Z"/></svg>