<svg id="Layer_1" data-name="Layer 1" xmlns="http://www.w3.org/2000/svg" viewBox="0 0 20 20"><defs><style>.cls-1{fill:#47c0b0;}</style></defs><title>Best-Features-small</title><path class="cls-1" d="M15.16,6.36a.4.4,0,0,0-.27-.12H9.7a.4.4,0,0,0-.27.12.46.46,0,0,0-.11.3V7.83H5.25A.4.4,0,0,0,5,8a.51.51,0,0,0-.13.34v4.13a.47.47,0,0,0,.13.33.37.37,0,0,0,.3.14h.62v1a.43.43,0,0,0,0,.05h0a0,0,0,0,1,0,0h0s0,0,0,0h0l0,0,0,0H6l0,0h.14l.06,0,0,0L7.41,12.9h4.23a.37.37,0,0,0,.3-.14.47.47,0,0,0,.13-.33V10.48H13l1,1.1,0,0,.05,0h.17l0,0,0,0h0v0h0v0h0v-1h.55a.37.37,0,0,0,.27-.13.42.42,0,0,0,.11-.3V6.66A.46.46,0,0,0,15.16,6.36ZM11.6,12.21a.17.17,0,0,1-.16.18H7.31a.21.21,0,0,0-.16.08l-.81.87v-.69a.27.27,0,0,0-.07-.18.21.21,0,0,0-.16-.08H5.46a.17.17,0,0,1-.17-.18V8.52a.17.17,0,0,1,.17-.19H9.32v1.72a.42.42,0,0,0,.11.3.37.37,0,0,0,.27.13h1.9Zm0-2.19H9.88a.14.14,0,0,1-.1,0,.15.15,0,0,1,0-.11V8.33h1.7a.18.18,0,0,1,.17.19V10Zm3.25-.16a.15.15,0,0,1,0,.11.12.12,0,0,1-.1,0h-.58a.16.16,0,0,0-.14.07.22.22,0,0,0-.07.16v.61l-.7-.77a.19.19,0,0,0-.15-.07h-1V8.3A.51.51,0,0,0,11.94,8a.4.4,0,0,0-.3-.13H9.74v-1a.16.16,0,0,1,0-.12.15.15,0,0,1,.1,0h4.83a.15.15,0,0,1,.1,0,.16.16,0,0,1,0,.12Z"/><path class="cls-1" d="M16.32,16.58H3.68a.25.25,0,0,1-.26-.26V3.68a.25.25,0,0,1,.26-.26H16.32a.25.25,0,0,1,.26.26V16.32A.25.25,0,0,1,16.32,16.58Zm-12.39-.5H16.06V3.93H3.93Z"/><path class="cls-1" d="M3.68,2.69a.26.26,0,0,1-.26-.26V.89a.26.26,0,1,1,.52,0V2.44A.28.28,0,0,1,3.68,2.69Z"/><path class="cls-1" d="M5.78,2.69a.26.26,0,0,1-.26-.26V.89A.26.26,0,1,1,6,.89V2.44A.26.26,0,0,1,5.78,2.69Z"/><path class="cls-1" d="M7.9,2.69a.26.26,0,0,1-.26-.26V.89a.26.26,0,1,1,.52,0V2.44A.29.29,0,0,1,7.9,2.69Z"/><path class="cls-1" d="M10,2.69a.26.26,0,0,1-.26-.26V.89a.26.26,0,1,1,.52,0V2.44A.26.26,0,0,1,10,2.69Z"/><path class="cls-1" d="M12.1,2.69a.26.26,0,0,1-.26-.26V.89a.26.26,0,1,1,.52,0V2.44A.26.26,0,0,1,12.1,2.69Z"/><path class="cls-1" d="M14.22,2.69A.26.26,0,0,1,14,2.43V.89a.26.26,0,1,1,.52,0V2.44A.27.27,0,0,1,14.22,2.69Z"/><path class="cls-1" d="M16.32,2.69a.26.26,0,0,1-.26-.26V.89a.29.29,0,0,1,.26-.27.26.26,0,0,1,.26.27V2.44A.26.26,0,0,1,16.32,2.69Z"/><path class="cls-1" d="M2.43,16.58H.89a.26.26,0,1,1,0-.52H2.44a.26.26,0,0,1,.27.26A.29.29,0,0,1,2.43,16.58Z"/><path class="cls-1" d="M2.43,14.48H.89a.26.26,0,1,1,0-.52H2.44a.26.26,0,0,1,.27.26A.31.31,0,0,1,2.43,14.48Z"/><path class="cls-1" d="M2.43,12.36H.89a.26.26,0,1,1,0-.52H2.44a.26.26,0,0,1,.27.26A.28.28,0,0,1,2.43,12.36Z"/><path class="cls-1" d="M2.43,10.26H.89a.26.26,0,1,1,0-.52H2.44a.26.26,0,0,1,.27.26A.28.28,0,0,1,2.43,10.26Z"/><path class="cls-1" d="M2.43,8.14H.89a.26.26,0,1,1,0-.52H2.44a.26.26,0,0,1,.27.26A.28.28,0,0,1,2.43,8.14Z"/><path class="cls-1" d="M2.43,6H.89a.26.26,0,1,1,0-.52H2.44a.26.26,0,0,1,.27.26A.29.29,0,0,1,2.43,6Z"/><path class="cls-1" d="M2.43,3.93H.89a.27.27,0,0,1-.27-.25.26.26,0,0,1,.27-.26H2.44a.26.26,0,0,1,.27.26A.3.3,0,0,1,2.43,3.93Z"/><path class="cls-1" d="M16.32,19.38a.26.26,0,0,1-.26-.27V17.56a.26.26,0,1,1,.52,0v1.55A.26.26,0,0,1,16.32,19.38Z"/><path class="cls-1" d="M14.22,19.38a.26.26,0,0,1-.26-.27V17.56a.26.26,0,1,1,.52,0v1.55A.27.27,0,0,1,14.22,19.38Z"/><path class="cls-1" d="M12.1,19.38a.26.26,0,0,1-.26-.27V17.56a.26.26,0,1,1,.52,0v1.55A.26.26,0,0,1,12.1,19.38Z"/><path class="cls-1" d="M10,19.38a.26.26,0,0,1-.26-.27V17.56a.26.26,0,1,1,.52,0v1.55A.26.26,0,0,1,10,19.38Z"/><path class="cls-1" d="M7.9,19.38a.26.26,0,0,1-.26-.27V17.56a.26.26,0,1,1,.52,0v1.55A.29.29,0,0,1,7.9,19.38Z"/><path class="cls-1" d="M5.78,19.38a.26.26,0,0,1-.26-.27V17.56a.26.26,0,1,1,.52,0v1.55A.26.26,0,0,1,5.78,19.38Z"/><path class="cls-1" d="M3.68,19.38a.26.26,0,0,1-.26-.27V17.56a.26.26,0,1,1,.52,0v1.55A.28.28,0,0,1,3.68,19.38Z"/><path class="cls-1" d="M19.11,3.93H17.56a.27.27,0,0,1-.27-.27.26.26,0,0,1,.27-.26h1.55a.26.26,0,0,1,.27.26A.27.27,0,0,1,19.11,3.93Z"/><path class="cls-1" d="M19.11,6H17.56a.26.26,0,1,1,0-.52h1.55a.26.26,0,1,1,0,.52Z"/><path class="cls-1" d="M19.11,8.14H17.56a.26.26,0,1,1,0-.52h1.55a.26.26,0,1,1,0,.52Z"/><path class="cls-1" d="M19.11,10.26H17.56a.26.26,0,1,1,0-.52h1.55a.26.26,0,1,1,0,.52Z"/><path class="cls-1" d="M19.11,12.36H17.56a.26.26,0,1,1,0-.52h1.55a.26.26,0,1,1,0,.52Z"/><path class="cls-1" d="M19.11,14.48H17.56a.26.26,0,1,1,0-.52h1.55a.26.26,0,0,1,.27.26A.27.27,0,0,1,19.11,14.48Z"/><path class="cls-1" d="M19.11,16.58H17.56a.26.26,0,1,1,0-.52h1.55a.26.26,0,1,1,0,.52Z"/></svg>