<svg id="Layer_1" data-name="Layer 1" xmlns="http://www.w3.org/2000/svg" viewBox="0 0 42 42"><defs><style>.cls-1{fill:#925de2;}.cls-2{fill:#fff;fill-rule:evenodd;}</style></defs><title>Icon-SocialMedia</title><g id="Group_1095" data-name="Group 1095"><g id="Group_1093" data-name="Group 1093"><path id="Path_517" data-name="Path 517" class="cls-1" d="M21,41A20,20,0,1,1,41,21,20,20,0,0,1,21,41Z"/></g><g id="Group_1094" data-name="Group 1094"><path id="Path_518" data-name="Path 518" class="cls-2" d="M17.86,21.09V32.68a.3.3,0,0,0,.3.3h4.31a.29.29,0,0,0,.3-.3h0V20.9h3.12a.3.3,0,0,0,.3-.28l.31-3.55a.31.31,0,0,0-.28-.32H22.77V14.23a1.07,1.07,0,0,1,1.07-1.07h2.4a.3.3,0,0,0,.31-.3h0V9.31a.3.3,0,0,0-.3-.3H22.18a4.32,4.32,0,0,0-4.32,4.32h0v3.42H15.71a.29.29,0,0,0-.3.3h0V20.6a.29.29,0,0,0,.3.3h2.15Z"/></g></g></svg>