<svg id="Layer_1" data-name="Layer 1" xmlns="http://www.w3.org/2000/svg" viewBox="0 0 80 80"><defs><style>.cls-1{fill:#ff9fc3;}.cls-2{fill:#c8aef0;}.cls-3{fill:#c86cb7;}.cls-4{fill:#a3dfd7;}.cls-5{fill:#a28aa4;}.cls-6{fill:#8098cb;}.cls-7{fill:#805e9b;}</style></defs><title>Title-Icon</title><path class="cls-1" d="M66.77,65.82c-.39.21-.78.4-1.18.58a30.45,30.45,0,0,1-12.65,2.43c-1.47,0-2.95-.07-4.41-.2-.55,0-1.1-.1-1.65-.16-.88.69-1.78,1.35-2.71,2,2.93,1.9,6.18,4,8.41,4.51a15.89,15.89,0,0,0,3.87.57A10.46,10.46,0,0,0,61.83,74c3-1.73,4.26-4.76,4.94-8.13m-.16-49.61h-.27c-1.72,0-3.44.09-5.16.23q4.41,7.68,8.37,15.62a14,14,0,0,1,1.72,1.38,28,28,0,0,1,2-3.55c1.29-1.9,3-2.83,3.4-5.3a6.87,6.87,0,0,0-2.06-6.23c-2.14-1.85-5.18-2.15-8-2.15"/><path class="cls-2" d="M25.82,63.51C26.58,67,28,70.24,30.92,72a9.36,9.36,0,0,0,4.83,1.25h.34a13.62,13.62,0,0,0,4.5-1,20.07,20.07,0,0,0,3.58-1.89c-1.78-1.16-3.44-2.26-4.66-2.93l-.72-.38c-4.37-1-8.69-2.22-13-3.6M71.27,33.44c-.17.36-.34.73-.5,1.1.59,1.22,1.18,2.44,1.76,3.67.79,1.66,1.56,3.37,2.21,5.11a2.33,2.33,0,0,1,.07-.25c.88-3.51-.84-7.11-3.54-9.63m-41-22.07A8.51,8.51,0,0,0,25.05,13c-4.35,3.3-4.14,9.78-3.52,15.19l.16,1.36c6.5-4.16,9.8-8.57,14.64-14.91l.84-1.12a12.61,12.61,0,0,0-6.89-2.17"/><path class="cls-3" d="M38.79,67.11l.72.38c1.22.67,2.88,1.77,4.66,2.93.93-.6,1.83-1.26,2.71-2a76.28,76.28,0,0,1-8.09-1.36m30.76-35c.41.82.82,1.65,1.22,2.48.16-.37.33-.74.5-1.1a14,14,0,0,0-1.72-1.38"/><path class="cls-4" d="M74.74,43.32c-.89,3.1-3.54,5.35-6,7.4l-1,.8a78,78,0,0,1-.28,9.91c-.19,1.47-.37,3-.66,4.39a19.94,19.94,0,0,0,6-4.93,15.47,15.47,0,0,0,3.38-7.37,20.4,20.4,0,0,0-1.46-10.2m-53-13.75-1,.62C16.5,32,11.48,33.67,8.13,36.76S2.49,44.49,3.41,49a13.46,13.46,0,0,0,6,8.14A40.1,40.1,0,0,0,19,61.24c2.28.76,4.57,1.53,6.87,2.27l-.15-.7c-.49-.22-1-.46-1.48-.74-3-1.61-6-3.31-8-6-3.19-4.28-3.07-10.41-.78-15.24A26.3,26.3,0,0,1,22,32.41l-.33-2.84M49.6,4.5a11.08,11.08,0,0,0-6.55,2.41,32.42,32.42,0,0,0-5.88,6.63l.37.25a32.47,32.47,0,0,1,6.29,6L44,20a71,71,0,0,1,17.16-3.58c-1.06-1.87-2.15-3.72-3.25-5.55-1.36-2.26-2.87-4.61-5.25-5.73A7.18,7.18,0,0,0,49.6,4.5"/><path class="cls-5" d="M67.71,51.52,48.93,66.83c-.68.55-1.36,1.1-2,1.64.55.06,1.1.12,1.65.16,1.46.13,2.94.2,4.41.2A30.45,30.45,0,0,0,65.59,66.4c.4-.18.79-.37,1.18-.58.29-1.43.47-2.92.66-4.39a78,78,0,0,0,.28-9.91M22,32.41a26.3,26.3,0,0,0-6.61,8.41c-2.29,4.83-2.41,11,.78,15.24,2,2.7,5,4.4,8,6,.49.28,1,.52,1.48.74-.25-1.32-.43-2.65-.58-3.94Q23.56,45.64,22,32.41m39.16-16A71,71,0,0,0,44,20c1.76,2.18,3.59,4.3,6.15,5.55,6,2.91,13,2.64,18.79,6.12.2.11.39.24.59.37q-4-7.94-8.37-15.62"/><path class="cls-6" d="M25.67,62.81l.15.7c4.28,1.38,8.6,2.65,13,3.6C34.42,65,30,64.76,25.67,62.81m45.1-28.27a38.54,38.54,0,0,0-2.91,12c-.13,1.66-.16,3.33-.15,5l1-.8c2.51-2,5.16-4.3,6-7.4-.65-1.74-1.42-3.45-2.21-5.11C72,37,71.36,35.76,70.77,34.54m-33.6-21-.84,1.12C31.49,21,28.19,25.41,21.69,29.57L22,32.41a49.38,49.38,0,0,1,4.14-3.26A70.42,70.42,0,0,1,44,20l-.19-.24a32.47,32.47,0,0,0-6.29-6l-.37-.25"/><path class="cls-7" d="M44,20a70.42,70.42,0,0,0-17.86,9.13A49.38,49.38,0,0,0,22,32.41q1.53,13.23,3.07,26.46c.15,1.29.33,2.62.58,3.94,4.37,2,8.75,2.14,13.12,4.3a76.28,76.28,0,0,0,8.09,1.36c.69-.54,1.37-1.09,2-1.64L67.71,51.52c0-1.67,0-3.34.15-5a38.54,38.54,0,0,1,2.91-12c-.4-.83-.81-1.66-1.22-2.48-.2-.13-.39-.26-.59-.37-5.77-3.48-12.81-3.21-18.79-6.12C47.61,24.32,45.78,22.2,44,20"/></svg>